<svg xmlns="http://www.w3.org/2000/svg" version="1.1" xmlns:xlink="http://www.w3.org/1999/xlink" xmlns:svgjs="http://svgjs.dev/svgjs" width="1000" height="1000" viewBox="0 0 1000 1000"><rect width="1000" height="1000" fill="#ffffff"></rect><g transform="matrix(0.7,0,0,0.7,149.57575757575756,378.4893201873287)"><svg viewBox="0 0 396 138" data-background-color="#ffffff" preserveAspectRatio="xMidYMid meet" height="348" width="1000" xmlns="http://www.w3.org/2000/svg" xmlns:xlink="http://www.w3.org/1999/xlink"><g id="tight-bounds" transform="matrix(1,0,0,1,0.2400000000000091,-0.1639005987330222)"><svg viewBox="0 0 395.52 138.32773541300227" height="138.32773541300227" width="395.52"><g><svg viewBox="0 0 395.52 138.32773541300227" height="138.32773541300227" width="395.52"><g><svg viewBox="0 0 655.9251483400438 229.40089090391348" height="138.32773541300227" width="395.52"><g transform="matrix(1,0,0,1,260.40514834004387,61.35215449766811)"><svg viewBox="0 0 395.52 106.69658190857726" height="106.69658190857726" width="395.52"><g><svg viewBox="0 0 395.52 106.69658190857726" height="106.69658190857726" width="395.52"><g><svg viewBox="0 0 395.52 65.66583946722749" height="65.66583946722749" width="395.52"><g transform="matrix(1,0,0,1,0,0)"><svg width="395.52" viewBox="7.08 -34.69 208.95 34.69" height="65.66583946722749" data-palette-color="#1c4b82"><g class="undefined-text-0" data-fill-palette-color="primary" id="text-0"><path d="M33.96-24.76L33.96-24.76Q33.96-23.1 33.56-21.59 33.15-20.09 32.29-18.7 31.42-17.31 29.92-16.21 28.42-15.11 26.37-14.5L26.37-14.5 36.84 0 28.83 0 19.12-13.45 13.23-13.45 13.23 0 7.08 0 7.08-34.69 21.85-34.69Q22.95-34.69 23.86-34.63 24.78-34.57 26.09-34.34 27.39-34.11 28.41-33.72 29.42-33.33 30.51-32.57 31.59-31.81 32.31-30.8 33.03-29.79 33.5-28.23 33.96-26.68 33.96-24.76ZM20.04-29.05L13.23-29.05 13.23-19.12 18.9-19.12Q20.36-19.12 21.48-19.21 22.61-19.31 23.8-19.62 25-19.92 25.77-20.46 26.54-21 27.04-21.95 27.54-22.9 27.54-24.19L27.54-24.19Q27.54-29.05 20.04-29.05L20.04-29.05ZM70.51 0L46.16 0 46.16-34.69 70.51-34.69 70.51-29.03 52.34-29.03 52.34-20.7 69.16-20.7 69.16-15.04 52.34-15.04 52.34-5.66 70.51-5.66 70.51 0ZM81.49 0L81.49-34.69 93.94-34.69Q95.01-34.69 95.77-34.68 96.53-34.67 97.79-34.57 99.04-34.47 99.96-34.29 100.87-34.11 102.06-33.76 103.24-33.42 104.08-32.95 104.93-32.47 105.82-31.71 106.71-30.96 107.25-30.02 107.78-29.08 108.14-27.78 108.49-26.49 108.49-24.93L108.49-24.93Q108.49-22.73 107.92-20.97 107.34-19.21 106.43-18.02 105.51-16.82 104.08-15.95 102.66-15.09 101.2-14.6 99.75-14.11 97.82-13.83 95.89-13.55 94.29-13.46 92.7-13.38 90.64-13.38L90.64-13.38Q89.64-13.38 87.64-13.48L87.64-13.48 87.64 0 81.49 0ZM92.7-29.03L87.64-29.03 87.64-19.14Q89.55-19.02 91.08-19.02L91.08-19.02Q92.74-19.02 93.95-19.08 95.16-19.14 96.54-19.31 97.92-19.48 98.86-19.85 99.8-20.21 100.61-20.78 101.41-21.34 101.81-22.22 102.22-23.1 102.22-24.27L102.22-24.27Q102.22-25.32 101.87-26.11 101.53-26.9 100.84-27.4 100.14-27.91 99.32-28.25 98.51-28.59 97.35-28.75 96.19-28.91 95.14-28.97 94.09-29.03 92.7-29.03L92.7-29.03ZM118.18 0L118.18-34.69 124.33-34.69 124.33-5.64 141.91-5.64 141.91 0 118.18 0ZM145.94 0L159.68-34.69 166.42-34.69 180.14 0 173.82 0 169.94-9.08 155.78-9.08 151.89 0 145.94 0ZM157.9-14.72L167.79-14.72 162.86-27.59 157.9-14.72ZM195.81-16.21L182.97-34.69 190.25-34.69 199.52-21.24 209-34.69 216.03-34.69 202.72-16.21 202.72 0 195.81 0 195.81-16.21Z" fill="#1c4b82" data-fill-palette-color="primary"></path></g></svg></g></svg></g><g transform="matrix(1,0,0,1,0,81.16796818529268)"><svg viewBox="0 0 300.5952 25.528613723284582" height="25.528613723284582" width="300.5952"><g transform="matrix(1,0,0,1,0,0)"><svg width="300.5952" viewBox="2.6 -36 533.35 45.3" height="25.528613723284582" data-palette-color="#5b30a5"><path d="M23.65-25.15L23.65-26.25Q23.65-29.25 21.18-30.83 18.7-32.4 14.85-32.4L14.85-32.4Q10.9-32.4 8.5-30.93 6.1-29.45 6.1-26.25L6.1-26.25Q6.1-24.15 7.35-22.88 8.6-21.6 10.45-20.88 12.3-20.15 15.45-19.35L15.45-19.35Q19.25-18.35 21.58-17.43 23.9-16.5 25.53-14.58 27.15-12.65 27.15-9.4L27.15-9.4Q27.15-4.25 23.78-1.88 20.4 0.5 15 0.5L15 0.5Q9.4 0.5 6-1.83 2.6-4.15 2.6-9.35L2.6-9.35 2.65-10.25 5.2-10.25 5.15-8.9Q5.15-5.25 7.8-3.58 10.45-1.9 14.8-1.9L14.8-1.9Q24.5-1.9 24.5-9.25L24.5-9.25Q24.5-11.6 23.18-13.05 21.85-14.5 19.93-15.25 18-16 14.65-16.9L14.65-16.9Q10.95-17.9 8.75-18.8 6.55-19.7 5-21.53 3.45-23.35 3.45-26.4L3.45-26.4Q3.45-30.6 6.68-32.7 9.9-34.8 14.8-34.8L14.8-34.8Q19.85-34.8 23-32.6 26.15-30.4 26.15-25.8L26.15-25.8 26.15-25.15 23.65-25.15ZM60.65-26.05Q64.45-26.05 66.85-23.63 69.25-21.2 69.25-16.45L69.25-16.45 69.25 0 66.7 0 66.7-15.7Q66.7-23.75 60.45-23.75L60.45-23.75Q57.45-23.75 55.55-21.45 53.65-19.15 53.65-15.7L53.65-15.7 53.65 0 51.1 0 51.1-15.7Q51.1-23.75 44.85-23.75L44.85-23.75Q41.85-23.75 39.95-21.45 38.05-19.15 38.05-15.7L38.05-15.7 38.05 0 35.5 0 35.5-25.55 37.2-25.55 37.8-21.75Q38.9-23.75 40.85-24.9 42.8-26.05 45.05-26.05L45.05-26.05Q47.6-26.05 49.62-24.95 51.65-23.85 52.75-21.7L52.75-21.7Q53.85-23.55 55.92-24.8 58-26.05 60.65-26.05L60.65-26.05ZM97.05-3.45Q97.05-1.8 98.4-1.8L98.4-1.8Q99.55-1.8 100.9-2.6L100.9-2.6 100.9-0.45Q99.5 0.5 97.7 0.5L97.7 0.5Q95.9 0.5 95.2-0.83 94.5-2.15 94.5-4.45L94.5-4.45Q92.95-1.9 90.62-0.7 88.3 0.5 85.15 0.5L85.15 0.5Q81.6 0.5 79.35-1.13 77.1-2.75 77.1-6.65L77.1-6.65Q77.1-10.2 79.22-11.98 81.35-13.75 84.97-14.28 88.6-14.8 94.5-14.8L94.5-14.8 94.5-18Q94.5-21.2 92.97-22.48 91.45-23.75 87.85-23.75L87.85-23.75Q84.55-23.75 82.55-22.48 80.55-21.2 80.55-18.55L80.55-18.55 80.55-17.75 78.1-17.75Q78-18.55 78-19.05L78-19.05Q78-22.3 80.77-24.18 83.55-26.05 87.85-26.05L87.85-26.05Q92.5-26.05 94.77-24.2 97.05-22.35 97.05-18.5L97.05-18.5 97.05-3.45ZM94.5-12.5Q89.2-12.5 86.17-12.15 83.15-11.8 81.4-10.53 79.65-9.25 79.65-6.6L79.65-6.6Q79.65-4.1 81.07-2.95 82.5-1.8 85.65-1.8L85.65-1.8Q87.9-1.8 89.92-2.8 91.95-3.8 93.22-5.83 94.5-7.85 94.5-10.8L94.5-10.8 94.5-12.5ZM123.34-16.4L123.34-17.2Q123.34-19.7 121.89-21.73 120.44-23.75 117.09-23.75L117.09-23.75Q114.79-23.75 113.34-22.53 111.89-21.3 111.27-19.55 110.64-17.8 110.64-16.2L110.64-16.2 110.64 0 108.09 0 108.09-25.55 109.79-25.55 110.34-21.75Q110.34-21.95 111.12-23.05 111.89-24.15 113.52-25.1 115.14-26.05 117.59-26.05L117.59-26.05Q121.54-26.05 123.67-23.63 125.79-21.2 125.79-17.6L125.79-17.6Q125.79-17.1 125.74-16.8 125.69-16.5 125.69-16.4L125.69-16.4 123.34-16.4ZM141.89-0.35Q141.24 0.05 140.31 0.28 139.39 0.5 138.49 0.5L138.49 0.5Q136.19 0.5 134.79-0.9 133.39-2.3 133.39-5.05L133.39-5.05 133.39-23.25 130.59-23.25 130.59-25.55 133.39-25.55 134.29-33.7 135.94-33.7 135.94-25.55 141.89-25.55 141.89-23.25 135.94-23.25 135.94-5.15Q135.94-3.15 136.72-2.48 137.49-1.8 138.79-1.8L138.79-1.8Q139.34-1.8 140.29-2.05 141.24-2.3 141.89-2.6L141.89-2.6 141.89-0.35ZM149.19 0L149.19-3.45 152.44-3.45 152.44 0 149.19 0ZM193.53-25.15L193.53-26.25Q193.53-29.25 191.06-30.83 188.58-32.4 184.73-32.4L184.73-32.4Q180.78-32.4 178.38-30.93 175.98-29.45 175.98-26.25L175.98-26.25Q175.98-24.15 177.23-22.88 178.48-21.6 180.33-20.88 182.18-20.15 185.33-19.35L185.33-19.35Q189.13-18.35 191.46-17.43 193.78-16.5 195.41-14.58 197.03-12.65 197.03-9.4L197.03-9.4Q197.03-4.25 193.66-1.88 190.28 0.5 184.88 0.5L184.88 0.5Q179.28 0.5 175.88-1.83 172.48-4.15 172.48-9.35L172.48-9.35 172.53-10.25 175.08-10.25 175.03-8.9Q175.03-5.25 177.68-3.58 180.33-1.9 184.68-1.9L184.68-1.9Q194.38-1.9 194.38-9.25L194.38-9.25Q194.38-11.6 193.06-13.05 191.73-14.5 189.81-15.25 187.88-16 184.53-16.9L184.53-16.9Q180.83-17.9 178.63-18.8 176.43-19.7 174.88-21.53 173.33-23.35 173.33-26.4L173.33-26.4Q173.33-30.6 176.56-32.7 179.78-34.8 184.68-34.8L184.68-34.8Q189.73-34.8 192.88-32.6 196.03-30.4 196.03-25.8L196.03-25.8 196.03-25.15 193.53-25.15ZM214.63 0.5Q211.48 0.5 209.03-1.03 206.58-2.55 205.2-5.45 203.83-8.35 203.83-12.4L203.83-12.4 203.83-13.15Q203.83-17.2 205.2-20.1 206.58-23 209.03-24.53 211.48-26.05 214.63-26.05L214.63-26.05Q217.78-26.05 220.23-24.53 222.68-23 224.06-20.1 225.43-17.2 225.43-13.15L225.43-13.15 225.43-12.4Q225.43-8.35 224.06-5.45 222.68-2.55 220.23-1.03 217.78 0.5 214.63 0.5L214.63 0.5ZM214.63-1.8Q218.28-1.8 220.58-4.45 222.88-7.1 222.88-12.1L222.88-12.1 222.88-13.45Q222.88-18.45 220.58-21.1 218.28-23.75 214.63-23.75L214.63-23.75Q210.98-23.75 208.68-21.1 206.38-18.45 206.38-13.45L206.38-13.45 206.38-12.1Q206.38-7.1 208.68-4.45 210.98-1.8 214.63-1.8L214.63-1.8ZM253.13-9.85Q253.13-6.6 251.83-4.28 250.53-1.95 248.28-0.73 246.03 0.5 243.18 0.5L243.18 0.5Q240.03 0.5 237.6-1.03 235.18-2.55 233.83-5.45 232.48-8.35 232.48-12.4L232.48-12.4 232.48-13.15Q232.48-17.2 233.8-20.1 235.13-23 237.55-24.53 239.98-26.05 243.13-26.05L243.13-26.05Q245.98-26.05 248.25-24.83 250.53-23.6 251.83-21.28 253.13-18.95 253.13-15.7L253.13-15.7 250.63-15.7Q250.63-19.6 248.5-21.68 246.38-23.75 243.13-23.75L243.13-23.75Q239.53-23.75 237.28-21.1 235.03-18.45 235.03-13.45L235.03-13.45 235.03-12.1Q235.03-7.1 237.3-4.45 239.58-1.8 243.18-1.8L243.18-1.8Q246.43-1.8 248.53-3.85 250.63-5.9 250.63-9.85L250.63-9.85 253.13-9.85ZM276.52-16.4L276.52-17.2Q276.52-19.7 275.07-21.73 273.63-23.75 270.27-23.75L270.27-23.75Q267.98-23.75 266.52-22.53 265.07-21.3 264.45-19.55 263.82-17.8 263.82-16.2L263.82-16.2 263.82 0 261.27 0 261.27-25.55 262.98-25.55 263.52-21.75Q263.52-21.95 264.3-23.05 265.07-24.15 266.7-25.1 268.32-26.05 270.77-26.05L270.77-26.05Q274.73-26.05 276.85-23.63 278.98-21.2 278.98-17.6L278.98-17.6Q278.98-17.1 278.93-16.8 278.88-16.5 278.88-16.4L278.88-16.4 276.52-16.4ZM303.97-3.45Q303.97-1.8 305.32-1.8L305.32-1.8Q306.47-1.8 307.82-2.6L307.82-2.6 307.82-0.45Q306.42 0.5 304.62 0.5L304.62 0.5Q302.82 0.5 302.12-0.83 301.42-2.15 301.42-4.45L301.42-4.45Q299.87-1.9 297.55-0.7 295.22 0.5 292.07 0.5L292.07 0.5Q288.52 0.5 286.27-1.13 284.02-2.75 284.02-6.65L284.02-6.65Q284.02-10.2 286.15-11.98 288.27-13.75 291.9-14.28 295.52-14.8 301.42-14.8L301.42-14.8 301.42-18Q301.42-21.2 299.9-22.48 298.37-23.75 294.77-23.75L294.77-23.75Q291.47-23.75 289.47-22.48 287.47-21.2 287.47-18.55L287.47-18.55 287.47-17.75 285.02-17.75Q284.92-18.55 284.92-19.05L284.92-19.05Q284.92-22.3 287.7-24.18 290.47-26.05 294.77-26.05L294.77-26.05Q299.42-26.05 301.7-24.2 303.97-22.35 303.97-18.5L303.97-18.5 303.97-3.45ZM301.42-12.5Q296.12-12.5 293.1-12.15 290.07-11.8 288.32-10.53 286.57-9.25 286.57-6.6L286.57-6.6Q286.57-4.1 288-2.95 289.42-1.8 292.57-1.8L292.57-1.8Q294.82-1.8 296.85-2.8 298.87-3.8 300.15-5.83 301.42-7.85 301.42-10.8L301.42-10.8 301.42-12.5ZM324.12-0.35Q323.47 0.05 322.55 0.28 321.62 0.5 320.72 0.5L320.72 0.5Q318.42 0.5 317.02-0.9 315.62-2.3 315.62-5.05L315.62-5.05 315.62-23.25 312.82-23.25 312.82-25.55 315.62-25.55 316.52-33.7 318.17-33.7 318.17-25.55 324.12-25.55 324.12-23.25 318.17-23.25 318.17-5.15Q318.17-3.15 318.94-2.48 319.72-1.8 321.02-1.8L321.02-1.8Q321.57-1.8 322.52-2.05 323.47-2.3 324.12-2.6L324.12-2.6 324.12-0.35ZM332.02-33.3L332.02-36 334.97-36 334.97-33.3 332.02-33.3ZM334.77 0L332.22 0 332.22-25.55 334.77-25.55 334.77 0ZM364.17-9.85Q364.17-6.6 362.87-4.28 361.57-1.95 359.32-0.73 357.07 0.5 354.22 0.5L354.22 0.5Q351.07 0.5 348.64-1.03 346.22-2.55 344.87-5.45 343.52-8.35 343.52-12.4L343.52-12.4 343.52-13.15Q343.52-17.2 344.84-20.1 346.17-23 348.59-24.53 351.02-26.05 354.17-26.05L354.17-26.05Q357.02-26.05 359.29-24.83 361.57-23.6 362.87-21.28 364.17-18.95 364.17-15.7L364.17-15.7 361.67-15.7Q361.67-19.6 359.54-21.68 357.42-23.75 354.17-23.75L354.17-23.75Q350.57-23.75 348.32-21.1 346.07-18.45 346.07-13.45L346.07-13.45 346.07-12.1Q346.07-7.1 348.34-4.45 350.62-1.8 354.22-1.8L354.22-1.8Q357.47-1.8 359.57-3.85 361.67-5.9 361.67-9.85L361.67-9.85 364.17-9.85ZM371.61 0L371.61-3.45 374.86-3.45 374.86 0 371.61 0ZM415.96-25.15L415.96-26.25Q415.96-29.25 413.48-30.83 411.01-32.4 407.16-32.4L407.16-32.4Q403.21-32.4 400.81-30.93 398.41-29.45 398.41-26.25L398.41-26.25Q398.41-24.15 399.66-22.88 400.91-21.6 402.76-20.88 404.61-20.15 407.76-19.35L407.76-19.35Q411.56-18.35 413.88-17.43 416.21-16.5 417.83-14.58 419.46-12.65 419.46-9.4L419.46-9.4Q419.46-4.25 416.08-1.88 412.71 0.5 407.31 0.5L407.31 0.5Q401.71 0.5 398.31-1.83 394.91-4.15 394.91-9.35L394.91-9.35 394.96-10.25 397.51-10.25 397.46-8.9Q397.46-5.25 400.11-3.58 402.76-1.9 407.11-1.9L407.11-1.9Q416.81-1.9 416.81-9.25L416.81-9.25Q416.81-11.6 415.48-13.05 414.16-14.5 412.23-15.25 410.31-16 406.96-16.9L406.96-16.9Q403.26-17.9 401.06-18.8 398.86-19.7 397.31-21.53 395.76-23.35 395.76-26.4L395.76-26.4Q395.76-30.6 398.98-32.7 402.21-34.8 407.11-34.8L407.11-34.8Q412.16-34.8 415.31-32.6 418.46-30.4 418.46-25.8L418.46-25.8 418.46-25.15 415.96-25.15ZM446.01-3.45Q446.01-1.8 447.36-1.8L447.36-1.8Q448.51-1.8 449.86-2.6L449.86-2.6 449.86-0.45Q448.46 0.5 446.66 0.5L446.66 0.5Q444.86 0.5 444.16-0.83 443.46-2.15 443.46-4.45L443.46-4.45Q441.91-1.9 439.58-0.7 437.26 0.5 434.11 0.5L434.11 0.5Q430.56 0.5 428.31-1.13 426.06-2.75 426.06-6.65L426.06-6.65Q426.06-10.2 428.18-11.98 430.31-13.75 433.93-14.28 437.56-14.8 443.46-14.8L443.46-14.8 443.46-18Q443.46-21.2 441.93-22.48 440.41-23.75 436.81-23.75L436.81-23.75Q433.51-23.75 431.51-22.48 429.51-21.2 429.51-18.55L429.51-18.55 429.51-17.75 427.06-17.75Q426.96-18.55 426.96-19.05L426.96-19.05Q426.96-22.3 429.73-24.18 432.51-26.05 436.81-26.05L436.81-26.05Q441.46-26.05 443.73-24.2 446.01-22.35 446.01-18.5L446.01-18.5 446.01-3.45ZM443.46-12.5Q438.16-12.5 435.13-12.15 432.11-11.8 430.36-10.53 428.61-9.25 428.61-6.6L428.61-6.6Q428.61-4.1 430.03-2.95 431.46-1.8 434.61-1.8L434.61-1.8Q436.86-1.8 438.88-2.8 440.91-3.8 442.18-5.83 443.46-7.85 443.46-10.8L443.46-10.8 443.46-12.5ZM475.95-25.55L465.6 0 463.35 0 453.05-25.55 455.8-25.55 464.55-3.7 464.65-3.7 473.45-25.55 475.95-25.55ZM501.55-25.55L491.2 0 488.95 0 478.65-25.55 481.4-25.55 490.15-3.7 490.25-3.7 499.05-25.55 501.55-25.55ZM517.05-0.65Q516.55 0.55 516.35 1.15L516.35 1.15Q515.25 4.05 514.42 5.65 513.6 7.25 512.32 8.28 511.05 9.3 509.15 9.3L509.15 9.3Q507.55 9.3 506 8.6L506 8.6 506 6.3Q507.65 7 508.7 7L508.7 7Q510 7 510.9 6.25 511.8 5.5 512.3 4.55 512.8 3.6 513.4 2.05L513.4 2.05 514.4-0.4 504.25-25.55 507-25.55 515.7-3.8 515.9-3.8 524.65-25.55 527.15-25.55 517.05-0.65ZM532.7 0L532.7-3.45 535.95-3.45 535.95 0 532.7 0Z" opacity="1" transform="matrix(1,0,0,1,0,0)" fill="#5b30a5" class="undefined-text-1" data-fill-palette-color="secondary" id="text-1"></path></svg></g></svg></g></svg></g></svg></g><g><svg viewBox="0 0 229.40089090391348 229.40089090391348" height="229.40089090391348" width="229.40089090391348"><g><svg></svg></g><g id="icon-0"><svg viewBox="0 0 229.40089090391348 229.40089090391348" height="229.40089090391348" width="229.40089090391348"><g><path d="M0 114.7c0-63.347 51.353-114.7 114.7-114.7 63.347 0 114.7 51.353 114.701 114.7 0 63.347-51.353 114.7-114.701 114.701-63.347 0-114.7-51.353-114.7-114.701zM114.7 223.479c60.077 0 108.779-48.702 108.779-108.779 0-60.077-48.702-108.779-108.779-108.778-60.077 0-108.779 48.702-108.778 108.778 0 60.077 48.702 108.779 108.778 108.779z" data-fill-palette-color="accent" fill="#1c4b82" stroke="transparent"></path></g><g transform="matrix(1,0,0,1,48.25327070573171,46.42429052693254)"><svg viewBox="0 0 132.89434949245006 136.5523098500484" height="136.5523098500484" width="132.89434949245006"><g><svg xmlns="http://www.w3.org/2000/svg" xmlns:xlink="http://www.w3.org/1999/xlink" version="1.1" x="0" y="0" viewBox="17 16.03383498175683 45.99999999999999 47.26616501824317" enable-background="new 0 0 80 80" xml:space="preserve" height="136.5523098500484" width="132.89434949245006" class="icon-wb-0" data-fill-palette-color="accent" id="wb-0"><g fill="#1c4b82" data-fill-palette-color="accent"><path fill="#1c4b82" d="M23.7 63.3c-1.2 0-2.4-0.3-3.5-1-2-1.2-3.2-3.2-3.2-5.4V22.4c0-2.2 1.2-4.3 3.2-5.4 2.1-1.2 4.5-1.3 6.6-0.2l32.8 17.2c2.1 1.1 3.4 3.2 3.4 5.6 0 2.4-1.3 4.6-3.5 5.7l-0.9-1.8c1.5-0.8 2.4-2.3 2.4-4 0-1.6-0.9-3.1-2.3-3.8L25.8 18.5c-1.4-0.8-3.2-0.7-4.6 0.2-1.4 0.8-2.2 2.2-2.2 3.7v34.5c0 1.5 0.8 2.9 2.2 3.7 1.5 0.9 3.2 1 4.6 0.2l8.8-4.6 0.9 1.8-8.8 4.6C25.8 63 24.8 63.3 23.7 63.3z" data-fill-palette-color="accent"></path></g><g fill="#1c4b82" data-fill-palette-color="accent"><g fill="#1c4b82" data-fill-palette-color="accent"><path fill="#1c4b82" d="M47 59c-2.2 0-4.2-0.9-5.7-2.4l1.4-1.4c1.1 1.2 2.7 1.8 4.3 1.8 3.3 0 6-2.7 6-6s-2.7-6-6-6-6 2.7-6 6h-2c0-4.4 3.6-8 8-8s8 3.6 8 8S51.4 59 47 59z" data-fill-palette-color="accent"></path></g><g fill="#1c4b82" data-fill-palette-color="accent"><polygon fill="#1c4b82" points="40,53.4 35.3,48.7 36.7,47.3 40,50.6 43.3,47.3 44.7,48.7   " data-fill-palette-color="accent"></polygon></g></g></svg></g></svg></g></svg></g></svg></g></svg></g></svg></g><defs></defs></svg><rect width="395.52" height="138.32773541300227" fill="none" stroke="none" visibility="hidden"></rect></g></svg></g></svg>